<svg xmlns="http://www.w3.org/2000/svg" width="14.324" height="14.324" viewBox="0 0 14.324 14.324"><g transform="translate(0.5 0.5)"><path d="M7.331,10.662h3.331m0,0h3.331m-3.331,0v3.331m0-3.331V7.331M4,14.659V6.665a4.139,4.139,0,0,1,.182-1.756,1.665,1.665,0,0,1,.728-.728A4.139,4.139,0,0,1,6.665,4h7.994a4.136,4.136,0,0,1,1.755.182,1.665,1.665,0,0,1,.728.728,4.137,4.137,0,0,1,.182,1.755v7.994a4.137,4.137,0,0,1-.182,1.755,1.666,1.666,0,0,1-.728.728,4.128,4.128,0,0,1-1.752.181h-8a4.132,4.132,0,0,1-1.753-.181,1.665,1.665,0,0,1-.728-.728A4.136,4.136,0,0,1,4,14.659Z" transform="translate(-4 -4)" fill="none" stroke="#a1a1a1" stroke-linecap="round" stroke-linejoin="round" stroke-width="1"/></g></svg>