<svg xmlns="http://www.w3.org/2000/svg" width="27.364" height="19.115" viewBox="0 0 27.364 19.115">
  <path id="Icon_metro-books" data-name="Icon metro-books" d="M8.146,8.571H3.368a.8.8,0,0,0-.8.8V26.889a.8.8,0,0,0,.8.8H8.146a.8.8,0,0,0,.8-.8V9.368a.8.8,0,0,0-.8-.8Zm-.8,4.779H4.164V11.757H7.35Zm8.761-4.779H11.332a.8.8,0,0,0-.8.8V26.889a.8.8,0,0,0,.8.8h4.779a.8.8,0,0,0,.8-.8V9.368a.8.8,0,0,0-.8-.8Zm-.8,4.779H12.129V11.757h3.186Zm6.3-3.547-4.268,2.15a.8.8,0,0,0-.353,1.07L24.16,27.248a.8.8,0,0,0,1.07.353l4.268-2.15a.8.8,0,0,0,.353-1.07L22.683,10.156a.8.8,0,0,0-1.07-.353Zm4.055,17.087a.8.8,0,1,1-.8-.8A.8.8,0,0,1,25.668,26.889Z" transform="translate(-2.571 -8.571)" fill="#fff"/>
</svg>
