<svg xmlns="http://www.w3.org/2000/svg" xmlns:xlink="http://www.w3.org/1999/xlink" width="55.362" height="44.099" viewBox="0 0 55.362 44.099">
  <defs>
    <filter id="Icon_metro-books" x="0" y="0" width="55.362" height="44.099" filterUnits="userSpaceOnUse">
      <feOffset dy="3" input="SourceAlpha"/>
      <feGaussianBlur stdDeviation="3" result="blur"/>
      <feFlood flood-color="#f65656"/>
      <feComposite operator="in" in2="blur"/>
    </filter>
  </defs>
  <g id="books_selected" transform="translate(-257.277 -791.572)">
    <g transform="matrix(1, 0, 0, 1, 257.28, 791.57)" filter="url(#Icon_metro-books)">
      <path id="Icon_metro-books-2" data-name="Icon metro-books" d="M10.183,8.571H3.659A1.091,1.091,0,0,0,2.571,9.659V33.583A1.091,1.091,0,0,0,3.659,34.67h6.525a1.091,1.091,0,0,0,1.087-1.087V9.659a1.091,1.091,0,0,0-1.087-1.087ZM9.1,15.1H4.746V12.921H9.1ZM21.058,8.571H14.533a1.091,1.091,0,0,0-1.087,1.087V33.583a1.091,1.091,0,0,0,1.087,1.087h6.525a1.091,1.091,0,0,0,1.087-1.087V9.659a1.091,1.091,0,0,0-1.087-1.087ZM19.97,15.1h-4.35V12.921h4.35Zm8.6-4.843-5.827,2.936a1.091,1.091,0,0,0-.482,1.46l9.786,19.423a1.091,1.091,0,0,0,1.46.482l5.827-2.936a1.091,1.091,0,0,0,.482-1.46L30.031,10.735a1.091,1.091,0,0,0-1.46-.482Zm5.536,23.33A1.087,1.087,0,1,1,33.02,32.5,1.087,1.087,0,0,1,34.107,33.583Z" transform="translate(6.43 -2.57)" fill="#fff"/>
    </g>
    <path id="Icon_metro-books-3" data-name="Icon metro-books" d="M10.183,8.571H3.659A1.091,1.091,0,0,0,2.571,9.659V33.583A1.091,1.091,0,0,0,3.659,34.67h6.525a1.091,1.091,0,0,0,1.087-1.087V9.659a1.091,1.091,0,0,0-1.087-1.087ZM9.1,15.1H4.746V12.921H9.1ZM21.058,8.571H14.533a1.091,1.091,0,0,0-1.087,1.087V33.583a1.091,1.091,0,0,0,1.087,1.087h6.525a1.091,1.091,0,0,0,1.087-1.087V9.659a1.091,1.091,0,0,0-1.087-1.087ZM19.97,15.1h-4.35V12.921h4.35Zm8.6-4.843-5.827,2.936a1.091,1.091,0,0,0-.482,1.46l9.786,19.423a1.091,1.091,0,0,0,1.46.482l5.827-2.936a1.091,1.091,0,0,0,.482-1.46L30.031,10.735a1.091,1.091,0,0,0-1.46-.482Zm5.536,23.33A1.087,1.087,0,1,1,33.02,32.5,1.087,1.087,0,0,1,34.107,33.583Z" transform="translate(263.705 792.33)" fill="#fff"/>
  </g>
</svg>
