<svg xmlns="http://www.w3.org/2000/svg" width="27.957" height="26.313" viewBox="0 0 27.957 26.313">
  <path id="Icon_awesome-highlighter" data-name="Icon awesome-highlighter" d="M0,24.667l5.135,1.646,1.822-1.822L3.512,21.045ZM6.4,12.332a1.881,1.881,0,0,0-.555,1.958l.671,2.2L3.9,19.109l4.945,4.945,2.614-2.614,2.2.672a1.881,1.881,0,0,0,1.961-.554l1.827-2.14L8.538,10.511,6.4,12.332ZM27.131,4.074,23.883.826A2.821,2.821,0,0,0,20.022.705L9.793,9.44l8.725,8.725,8.734-10.23a2.821,2.821,0,0,0-.121-3.861Z" transform="translate(0 0)" fill="#d4d2d2"/>
</svg>
