<svg id="Group_142" data-name="Group 142" xmlns="http://www.w3.org/2000/svg" width="19.591" height="24.488" viewBox="0 0 19.591 24.488">
  <path id="Icon_material-note-add" data-name="Icon material-note-add" d="M18.244,3h-9.8A2.446,2.446,0,0,0,6.012,5.449L6,25.039a2.446,2.446,0,0,0,2.437,2.449H23.142a2.456,2.456,0,0,0,2.449-2.449V10.346Zm2.449,17.142H17.02v3.673H14.571V20.142H10.9V17.693h3.673V14.02H17.02v3.673h3.673ZM17.02,11.571V4.837l6.734,6.734Z" transform="translate(-6 -3)" fill="#fff"/>
  <rect id="Rectangle_111" data-name="Rectangle 111" width="11.428" height="11.428" transform="translate(4.245 10.368)" fill="#fff"/>
  <path id="Path_216" data-name="Path 216" d="M5009.6,74.973h12.1" transform="translate(-5005.854 -63.788)" fill="none" stroke="#242424" stroke-linecap="round" stroke-width="2"/>
  <path id="Path_217" data-name="Path 217" d="M5009.6,74.973h12.1" transform="translate(-5005.854 -60.523)" fill="none" stroke="#242424" stroke-linecap="round" stroke-width="2"/>
  <path id="Path_218" data-name="Path 218" d="M5009.6,74.973h12.1" transform="translate(-5005.854 -57.258)" fill="none" stroke="#242424" stroke-linecap="round" stroke-width="2"/>
  <path id="Path_219" data-name="Path 219" d="M5009.6,74.973h12.1" transform="translate(-5005.854 -53.993)" fill="none" stroke="#242424" stroke-linecap="round" stroke-width="2"/>
</svg>
