<svg xmlns="http://www.w3.org/2000/svg" width="39.021" height="39.021" viewBox="0 0 39.021 39.021">
  <path id="Icon_ionic-md-happy" data-name="Icon ionic-md-happy" d="M22.885,3.375A19.51,19.51,0,1,0,42.4,22.885,19.505,19.505,0,0,0,22.885,3.375Zm0,35.118A15.608,15.608,0,1,1,38.494,22.885,15.655,15.655,0,0,1,22.885,38.493Zm6.829-17.559a2.927,2.927,0,1,0-2.927-2.927A2.874,2.874,0,0,0,29.714,20.934Zm-13.657,0a2.927,2.927,0,1,0-2.927-2.927A2.874,2.874,0,0,0,16.057,20.934Zm6.829,12.682a10.63,10.63,0,0,0,9.95-6.829h-19.9A10.63,10.63,0,0,0,22.885,33.616Z" transform="translate(-3.375 -3.375)" fill="#e9e9e9"/>
</svg>
