<svg id="icon" xmlns="http://www.w3.org/2000/svg" width="282.974" height="345.373" viewBox="0 0 282.974 345.373">
  <path id="Path_46" data-name="Path 46" d="M777.512,259.287l46.07-52.957c-.293.072,10.875-2.05,20.634.429L683.623,398.908c34.749-17.039,136.6,9.521,136.6,71.635,0,51.129-41.581,67.3-82.63,68.335h-.091q-4.267.1-8.516,0H657.82V259.287Z" transform="translate(-657.82 -193.553)" fill="#fff" fill-rule="evenodd"/>
  <path id="Path_47" data-name="Path 47" d="M840.9,199.739c10.307,2.98,15.667,5.542,22.162,10.225L737.141,360.717c34.372,22.994,70.446,80.232,50.881,126.9,9.641-63.268-54.083-110.718-91.537-116.673Z" transform="translate(-616.68 -199.739)" fill-rule="evenodd"/>
  <path id="Path_48" data-name="Path 48" d="M847.747,210.608c8.2,6.943,12.029,11.462,16.053,18.4l-97.244,117.15c21.97,35.029,36.412,109.089-.514,143.681,34.657-53.8-4.116-123.148-35.863-143.892Z" transform="translate(-580.826 -188.174)" fill="#fff" fill-rule="evenodd"/>
</svg>
