<svg xmlns="http://www.w3.org/2000/svg" width="156.898" height="51.461" viewBox="0 0 156.898 51.461">
  <g id="Group_43" data-name="Group 43" transform="translate(-50.664 -708.614)">
    <g id="Group_33" data-name="Group 33" transform="translate(168.72 708.614)">
      <path id="Path_63" data-name="Path 63" d="M382.626,720.393l6.323-7.269a7.752,7.752,0,0,1,2.832.059l-22.043,26.375c4.77-2.339,18.75,1.307,18.75,9.833,0,7.018-5.707,9.238-11.342,9.38h-.012q-.586.014-1.169,0H366.2V720.393Z" transform="translate(-366.197 -711.37)" fill="#a1a1a1" fill-rule="evenodd"/>
      <path id="Path_64" data-name="Path 64" d="M415.3,708.614a8.693,8.693,0,0,1,3.042,1.4L401.055,730.71c4.718,3.156,9.669,11.013,6.984,17.418,1.323-8.684-7.423-15.2-12.565-16.015Z" transform="translate(-384.52 -708.614)" fill="#a1a1a1" fill-rule="evenodd"/>
      <path id="Path_65" data-name="Path 65" d="M437.128,716.845a8.709,8.709,0,0,1,2.2,2.526l-13.348,16.08c3.016,4.809,5,14.974-.07,19.722,4.757-7.385-.565-16.9-4.923-19.751Z" transform="translate(-400.489 -713.765)" fill="#a1a1a1" fill-rule="evenodd"/>
    </g>
    <g id="Group_42" data-name="Group 42" transform="translate(50.664 712.922)">
      <text id="kotobati" transform="translate(1.667 44.153)" fill="#a1a1a1" font-size="10" font-family="SegoeUI, Segoe UI" letter-spacing="0.2em"><tspan x="0" y="0">kotobati</tspan></text>
      <g id="Group_41" data-name="Group 41" transform="translate(0 0)">
        <g id="Group_34" data-name="Group 34" transform="translate(0 5.403)">
          <path id="Path_66" data-name="Path 66" d="M60.792,739.311H58.1a2.692,2.692,0,0,0-1.95.752,2.356,2.356,0,0,0-.776,1.744v11.22a2.209,2.209,0,0,0,.793,1.735,2.557,2.557,0,0,0,.884.578,2.838,2.838,0,0,0,1.049.2H68.889a2.624,2.624,0,0,0,1.934-.777,2.2,2.2,0,0,0,.777-1.735v-11.22a4.81,4.81,0,0,1,.454-2.041,5.416,5.416,0,0,1,1.2-1.686,5.359,5.359,0,0,1,1.727-1.091,5.507,5.507,0,0,1,2.041-.388h0a5.292,5.292,0,0,1,2.066.446,5.85,5.85,0,0,1,1.785,1.14,4.87,4.87,0,0,1,1.124,1.619,2.988,2.988,0,0,1,.215.479q.049.166.132.587a4.874,4.874,0,0,1,.083.934V753.06a2.317,2.317,0,0,0,.76,1.735,2.636,2.636,0,0,0,.9.562,2.878,2.878,0,0,0,1.033.2h0v2.693h0a5.856,5.856,0,0,1-2.082-.38,5.659,5.659,0,0,1-1.718-1.124,5.441,5.441,0,0,1-1.2-1.694,4.871,4.871,0,0,1-.405-1.991V741.807a2.32,2.32,0,0,0-.76-1.735,2.7,2.7,0,0,0-.884-.562,2.836,2.836,0,0,0-1.049-.2h0a2.639,2.639,0,0,0-1.95.76,2.3,2.3,0,0,0-.578.818,2.36,2.36,0,0,0-.2.917v11.22a4.93,4.93,0,0,1-.446,2.057,5.153,5.153,0,0,1-1.2,1.677,5.532,5.532,0,0,1-1.694,1.074,4.938,4.938,0,0,1-1,.3,6.189,6.189,0,0,1-1.066.083H58.1a5.6,5.6,0,0,1-2.1-.4,6.36,6.36,0,0,1-1.735-1.124,5.257,5.257,0,0,1-1.165-1.677,4.945,4.945,0,0,1-.4-1.991v-11.22a3.874,3.874,0,0,1,.033-.513q.033-.247.083-.529a6.613,6.613,0,0,1,.3-.975,5.474,5.474,0,0,1,1.214-1.719,5.313,5.313,0,0,1,1.718-1.091,5.575,5.575,0,0,1,2.057-.38h2.694Zm-1.107,21.648H62.4v2.71h-2.71Zm5.4,0H67.8v2.71h-2.71Z" transform="translate(-51.935 -735.841)" fill="#a1a1a1"/>
          <path id="Path_67" data-name="Path 67" d="M67.287,763.158h-4.23v-4.23h4.23Zm-2.71-1.52h1.191v-1.191H64.577Zm-2.694,1.52H57.654v-4.23h4.229Zm-2.71-1.52h1.19v-1.191h-1.19Zm25.432-3.9H83.78a6.626,6.626,0,0,1-2.284-.428l-.035-.014a6.45,6.45,0,0,1-1.946-1.277,6.228,6.228,0,0,1-1.362-1.931,5.646,5.646,0,0,1-.47-2.3V740.535a1.558,1.558,0,0,0-.526-1.186,1.919,1.919,0,0,0-.637-.4,2.065,2.065,0,0,0-.771-.146,1.893,1.893,0,0,0-1.412.538l-.025.024a1.537,1.537,0,0,0-.39.551,1.617,1.617,0,0,0-.139.623v11.22a5.7,5.7,0,0,1-.514,2.371,5.93,5.93,0,0,1-1.375,1.922,6.317,6.317,0,0,1-1.925,1.221,5.731,5.731,0,0,1-1.153.341,6.967,6.967,0,0,1-1.2.094H56.828a6.385,6.385,0,0,1-2.381-.451l-.03-.013a7.154,7.154,0,0,1-1.94-1.26,6.065,6.065,0,0,1-1.345-1.931,5.725,5.725,0,0,1-.467-2.294v-11.22a4.625,4.625,0,0,1,.04-.614c.023-.174.052-.36.087-.559l.007-.036a7.42,7.42,0,0,1,.331-1.086l.016-.039a6.267,6.267,0,0,1,1.383-1.954A6.093,6.093,0,0,1,54.492,735a6.354,6.354,0,0,1,2.336-.433h3.453v4.23H56.828a1.942,1.942,0,0,0-1.422.538,1.593,1.593,0,0,0-.545,1.2v11.22a1.452,1.452,0,0,0,.534,1.163l.037.035a1.8,1.8,0,0,0,.624.409,2.073,2.073,0,0,0,.771.145h10.79a1.878,1.878,0,0,0,1.4-.554l.038-.036a1.442,1.442,0,0,0,.516-1.162v-11.22a5.588,5.588,0,0,1,.525-2.36,6.068,6.068,0,0,1,3.335-3.164,6.292,6.292,0,0,1,2.254-.441h.066a6.07,6.07,0,0,1,2.361.506,6.623,6.623,0,0,1,2.014,1.291,5.65,5.65,0,0,1,1.285,1.842,3.492,3.492,0,0,1,.256.589c.041.136.088.345.15.658a5.636,5.636,0,0,1,.1,1.08v11.253a1.553,1.553,0,0,0,.525,1.186,1.886,1.886,0,0,0,.646.4,2.144,2.144,0,0,0,.762.148h.76Zm-29.579-1.889a4.874,4.874,0,0,0,1.8.336h10.79a5.446,5.446,0,0,0,.934-.071,4.212,4.212,0,0,0,.846-.253,4.8,4.8,0,0,0,1.464-.929,4.417,4.417,0,0,0,1.021-1.433,4.189,4.189,0,0,0,.378-1.743v-11.22a3.121,3.121,0,0,1,.258-1.212,3.073,3.073,0,0,1,.754-1.073,3.363,3.363,0,0,1,2.375-.969h.182a3.6,3.6,0,0,1,1.244.25,3.456,3.456,0,0,1,1.131.719,3.065,3.065,0,0,1,.995,2.285v11.253a4.14,4.14,0,0,0,.34,1.684,4.716,4.716,0,0,0,1.035,1.458,4.917,4.917,0,0,0,1.473.962,5.11,5.11,0,0,0,1.036.268v-1.2a3.887,3.887,0,0,1-.544-.163,3.42,3.42,0,0,1-1.156-.723,3.06,3.06,0,0,1-.994-2.284V740.535a4.107,4.107,0,0,0-.068-.787c-.066-.336-.1-.467-.114-.516a2.263,2.263,0,0,0-.159-.343l-.026-.055a4.14,4.14,0,0,0-.95-1.369,5.112,5.112,0,0,0-1.556-.99,4.515,4.515,0,0,0-3.532-.051,4.618,4.618,0,0,0-1.485.937,4.678,4.678,0,0,0-1.03,1.452,4.077,4.077,0,0,0-.384,1.722v11.22a2.937,2.937,0,0,1-1.018,2.291,3.371,3.371,0,0,1-2.453.981H56.828a3.611,3.611,0,0,1-1.328-.251,3.324,3.324,0,0,1-1.125-.73,2.947,2.947,0,0,1-1.034-2.29v-11.22a3.1,3.1,0,0,1,1.008-2.289,3.438,3.438,0,0,1,2.479-.966h1.934v-1.19H56.828a4.843,4.843,0,0,0-1.78.327,4.58,4.58,0,0,0-1.475.936,4.745,4.745,0,0,0-1.037,1.464,5.96,5.96,0,0,0-.251.827q-.044.254-.074.479a3.055,3.055,0,0,0-.027.412v11.22a4.211,4.211,0,0,0,.342,1.689,4.526,4.526,0,0,0,1,1.437A5.614,5.614,0,0,0,55.026,755.849Z" transform="translate(-50.664 -734.57)" fill="#a1a1a1"/>
        </g>
        <g id="Group_35" data-name="Group 35" transform="translate(31.969 0.264)">
          <path id="Path_68" data-name="Path 68" d="M141.236,728.037h2.71V744.5a4.93,4.93,0,0,1-.438,2.024,5.111,5.111,0,0,1-1.182,1.677,5.58,5.58,0,0,1-3.8,1.487h0v-2.694h0a2.747,2.747,0,0,0,1.95-.76,2.25,2.25,0,0,0,.579-.81,2.436,2.436,0,0,0,.181-.926Zm-3.1-2.462v-2.71h2.71v2.71Zm5.5,0v-2.71h2.693v2.71Z" transform="translate(-137.379 -722.105)" fill="#a1a1a1"/>
          <path id="Path_69" data-name="Path 69" d="M137.338,749.174H136.5v-4.213h.76a2,2,0,0,0,1.43-.554,1.505,1.505,0,0,0,.4-.543,1.67,1.67,0,0,0,.125-.638V726.007h4.23v17.218a5.7,5.7,0,0,1-.5,2.333,5.883,5.883,0,0,1-1.357,1.924,6.325,6.325,0,0,1-1.961,1.24,6.26,6.26,0,0,1-2.276.451Zm.677-2.767V747.6a4.664,4.664,0,0,0,1.03-.283,4.8,4.8,0,0,0,1.492-.941,4.373,4.373,0,0,0,1.006-1.431,4.2,4.2,0,0,0,.372-1.715v-15.7h-1.191v15.7a3.205,3.205,0,0,1-.238,1.212,3.016,3.016,0,0,1-.769,1.084A3.447,3.447,0,0,1,138.015,746.407Zm7.81-21.343h-4.213v-4.23h4.213Zm-2.693-1.519H144.3v-1.191h-1.174Zm-2.793,1.519h-4.23v-4.23h4.23Zm-2.71-1.519h1.19v-1.191h-1.19Z" transform="translate(-136.108 -720.834)" fill="#a1a1a1"/>
        </g>
        <g id="Group_36" data-name="Group 36" transform="translate(43.279)">
          <path id="Path_70" data-name="Path 70" d="M171.078,722.158v21.863a3.075,3.075,0,0,0,.033.488,1.981,1.981,0,0,0,.149.471,2.681,2.681,0,0,0,.578.776,2.725,2.725,0,0,0,1.933.76h0v2.693a5.557,5.557,0,0,1-2.049-.4,5.478,5.478,0,0,1-1.752-1.091,5.125,5.125,0,0,1-1.6-3.7V722.158Z" transform="translate(-167.608 -721.398)" fill="#a1a1a1"/>
          <path id="Path_71" data-name="Path 71" d="M173.26,748.7h-.76a6.331,6.331,0,0,1-2.327-.449,6.253,6.253,0,0,1-1.992-1.242,5.884,5.884,0,0,1-1.844-4.257V720.128h4.23V742.75a2.355,2.355,0,0,0,.024.366,1.212,1.212,0,0,0,.095.287,1.932,1.932,0,0,0,.407.532,1.97,1.97,0,0,0,1.408.55h.76Zm-5.4-27.051v21.1a4.362,4.362,0,0,0,1.362,3.146,4.733,4.733,0,0,0,1.512.939,4.937,4.937,0,0,0,1.011.281V745.93a3.558,3.558,0,0,1-2.437-1.893,2.763,2.763,0,0,1-.214-.68,3.838,3.838,0,0,1-.043-.607v-21.1Z" transform="translate(-166.337 -720.128)" fill="#a1a1a1"/>
        </g>
        <g id="Group_37" data-name="Group 37" transform="translate(48.633 5.437)">
          <path id="Path_72" data-name="Path 72" d="M188.1,736.689v16.459a4.845,4.845,0,0,1-.446,2.025,5.184,5.184,0,0,1-2.9,2.768,5.58,5.58,0,0,1-2.074.4h0v-2.693h0a2.748,2.748,0,0,0,1.95-.76,2.249,2.249,0,0,0,.578-.81,2.429,2.429,0,0,0,.181-.926V736.689Zm-2.71,24.358h2.71v2.71h-2.71Z" transform="translate(-181.918 -735.93)" fill="#a1a1a1"/>
          <path id="Path_73" data-name="Path 73" d="M187.587,763.246h-4.23v-4.23h4.23Zm-2.71-1.52h1.191v-1.19h-1.191Zm-3.387-3.9h-.843v-4.213h.76a2,2,0,0,0,1.43-.555,1.5,1.5,0,0,0,.4-.543,1.663,1.663,0,0,0,.125-.638V734.659h4.23v17.218a5.62,5.62,0,0,1-.514,2.339,5.942,5.942,0,0,1-3.311,3.16,6.359,6.359,0,0,1-2.272.449Zm.677-2.767v1.188a4.86,4.86,0,0,0,1.034-.284,4.423,4.423,0,0,0,2.488-2.375,4.11,4.11,0,0,0,.379-1.711v-15.7h-1.191v15.7a3.2,3.2,0,0,1-.238,1.212,3.016,3.016,0,0,1-.769,1.083A3.444,3.444,0,0,1,182.167,755.059Z" transform="translate(-180.647 -734.659)" fill="#a1a1a1"/>
        </g>
        <g id="Group_38" data-name="Group 38" transform="translate(59.424 5.602)">
          <path id="Path_74" data-name="Path 74" d="M232.969,758.779a4.971,4.971,0,0,1-.4,1.983,4.622,4.622,0,0,1-1.182,1.636,5.225,5.225,0,0,1-1.71,1.1q-1,.4-7.775.256v-2.628a63.2,63.2,0,0,0,6.742-.124,2.483,2.483,0,0,0,.893-.5,2.258,2.258,0,0,0,.743-1.718v-.909a7.087,7.087,0,0,1-1.272.512l-.661.132-.743.049H216.89a5.228,5.228,0,0,1-2.057-.388,5.794,5.794,0,0,1-1.686-1.1,5.02,5.02,0,0,1-1.2-1.686,4.87,4.87,0,0,1-.43-1.983V742.287a4.85,4.85,0,0,1,.4-1.966,5.225,5.225,0,0,1,1.173-1.669,5.28,5.28,0,0,1,3.793-1.52H227.6a6,6,0,0,1,1.033.083,4.6,4.6,0,0,1,.983.3,5.948,5.948,0,0,1,1.751,1.107,5.081,5.081,0,0,1,1.157,1.644,4.849,4.849,0,0,1,.446,2.024v11.121a2.244,2.244,0,0,0,.19.975,2.429,2.429,0,0,0,.57.743,2.577,2.577,0,0,0,1.9.76h0v2.677a5.641,5.641,0,0,1-1.371-.165,2.519,2.519,0,0,1-.289-.083q-.141-.05-.355-.132l-.644-.314Zm-18-18.211a2.267,2.267,0,0,0-.76,1.718v11.121a2.14,2.14,0,0,0,.19.95,2.9,2.9,0,0,0,.57.768,2.705,2.705,0,0,0,1.917.76H227.6a2.775,2.775,0,0,0,1.008-.2,3.062,3.062,0,0,0,.926-.562,2.257,2.257,0,0,0,.743-1.719V742.287a2.338,2.338,0,0,0-.182-.933,2.418,2.418,0,0,0-.562-.785,2.729,2.729,0,0,0-1.934-.76H216.89a3,3,0,0,0-1.041.182A2.3,2.3,0,0,0,214.973,740.568Z" transform="translate(-210.759 -736.371)" fill="#a1a1a1"/>
          <path id="Path_75" data-name="Path 75" d="M223.846,763.282c-.9,0-1.967-.012-3.237-.04l-.743-.016V759.09l.764,0a64.9,64.9,0,0,0,6.537-.1,1.7,1.7,0,0,0,.594-.344,1.451,1.451,0,0,0,.469-.9c-.091.03-.184.06-.278.088l-.071.018-.76.145-.794.051H215.619a6.007,6.007,0,0,1-2.354-.448,6.6,6.6,0,0,1-1.905-1.241,5.808,5.808,0,0,1-1.377-1.937,5.641,5.641,0,0,1-.495-2.289V741.016a5.629,5.629,0,0,1,.469-2.271,6,6,0,0,1,1.341-1.91,6.038,6.038,0,0,1,4.321-1.734h10.708a6.821,6.821,0,0,1,1.164.094,5.437,5.437,0,0,1,1.146.345,6.719,6.719,0,0,1,1.965,1.243,5.873,5.873,0,0,1,1.341,1.9,5.632,5.632,0,0,1,.514,2.338v11.121a1.516,1.516,0,0,0,.116.646,1.68,1.68,0,0,0,.4.511l.025.024a1.831,1.831,0,0,0,1.363.537h.76v4.2h-.76a6.425,6.425,0,0,1-1.555-.188,3.055,3.055,0,0,1-.35-.1,5.735,5.735,0,0,1-.461,2.026,5.4,5.4,0,0,1-1.361,1.891,6.012,6.012,0,0,1-1.944,1.248C228.263,763.1,227.294,763.282,223.846,763.282Zm-2.461-1.545c5.335.1,6.484-.116,6.73-.216a4.492,4.492,0,0,0,1.464-.938l.025-.023a3.838,3.838,0,0,0,.99-1.369,4.233,4.233,0,0,0,.343-1.683v-2.125l1.708.833q.182.07.3.113a1.737,1.737,0,0,0,.2.057q.223.056.447.09V755.3a3.251,3.251,0,0,1-1.666-.9,3.2,3.2,0,0,1-.73-.965,3,3,0,0,1-.265-1.3V741.016a4.121,4.121,0,0,0-.378-1.71,4.357,4.357,0,0,0-.983-1.4,5.189,5.189,0,0,0-1.519-.959,3.941,3.941,0,0,0-.83-.254,5.274,5.274,0,0,0-.9-.071H215.619a4.7,4.7,0,0,0-1.787.332,4.654,4.654,0,0,0-1.478.975,4.493,4.493,0,0,0-1.005,1.427,4.119,4.119,0,0,0-.341,1.662v11.121a4.137,4.137,0,0,0,.365,1.676,4.3,4.3,0,0,0,1.018,1.435,5.068,5.068,0,0,0,1.466.957,4.5,4.5,0,0,0,1.761.328H226.3l.668-.045.576-.115a6.363,6.363,0,0,0,1.1-.446l1.115-.591v2.172a3,3,0,0,1-.985,2.274,3.277,3.277,0,0,1-1.182.673c-.218.069-.58.186-6.212.162Zm4.941-6.361H215.619a3.457,3.457,0,0,1-2.438-.966,3.7,3.7,0,0,1-.732-.989,2.9,2.9,0,0,1-.267-1.284V741.016a3.006,3.006,0,0,1,.986-2.259,3.062,3.062,0,0,1,1.148-.751,3.779,3.779,0,0,1,1.3-.228h10.708a3.478,3.478,0,0,1,2.454.966,3.191,3.191,0,0,1,.739,1.038,3.1,3.1,0,0,1,.244,1.234v11.121a3,3,0,0,1-.985,2.274,3.871,3.871,0,0,1-1.17.715A3.555,3.555,0,0,1,226.327,755.375ZM215.619,739.3a2.233,2.233,0,0,0-.78.135,1.536,1.536,0,0,0-.589.391l-.03.029a1.506,1.506,0,0,0-.519,1.164v11.121a1.414,1.414,0,0,0,.113.615,2.172,2.172,0,0,0,.425.565,1.941,1.941,0,0,0,1.38.538h10.708a2.034,2.034,0,0,0,.734-.147,2.288,2.288,0,0,0,.7-.424,1.483,1.483,0,0,0,.486-1.148V741.016a1.573,1.573,0,0,0-.12-.633,1.671,1.671,0,0,0-.389-.537,1.971,1.971,0,0,0-1.408-.549Z" transform="translate(-209.488 -735.1)" fill="#a1a1a1"/>
        </g>
        <g id="Group_39" data-name="Group 39" transform="translate(83.367 0.248)">
          <path id="Path_76" data-name="Path 76" d="M278.274,727.977h2.694v16.459a2.329,2.329,0,0,0,.777,1.735,2.617,2.617,0,0,0,1.934.76h0v2.693h0a5.432,5.432,0,0,1-2.091-.4,5.25,5.25,0,0,1-1.694-1.1l-.265-.264-.265.264a5.394,5.394,0,0,1-1.727,1.107,5.5,5.5,0,0,1-2.074.4v-2.693h0a2.6,2.6,0,0,0,1.917-.76,2.343,2.343,0,0,0,.793-1.735Zm-2.762-2.446v-2.71h2.71v2.71Zm5.247,0v-2.71h2.71v2.71Z" transform="translate(-274.752 -722.061)" fill="#a1a1a1"/>
          <path id="Path_77" data-name="Path 77" d="M283.167,749.113h-.826a6.2,6.2,0,0,1-2.314-.462,6.118,6.118,0,0,1-1.672-1.016,6.2,6.2,0,0,1-1.7,1.026,6.273,6.273,0,0,1-2.358.452h-.76V744.9h.76a1.853,1.853,0,0,0,1.38-.537,1.6,1.6,0,0,0,.571-1.2V725.946h4.213v17.219a1.568,1.568,0,0,0,.542,1.186,1.88,1.88,0,0,0,1.408.549h.76Zm-4.809-3.6.8.8a4.519,4.519,0,0,0,1.446.933,4.57,4.57,0,0,0,1.042.29v-1.187a3.257,3.257,0,0,1-1.711-.912,3.06,3.06,0,0,1-1-2.272v-15.7h-1.174v15.7a3.085,3.085,0,0,1-1.027,2.284,3.23,3.23,0,0,1-1.683.9v1.188a4.722,4.722,0,0,0,2.516-1.235Zm4.6-20.491h-4.229v-4.23h4.229Zm-2.71-1.52h1.19v-1.19h-1.19Zm-2.537,1.52h-4.229v-4.23h4.229ZM275,723.5h1.19v-1.19H275Z" transform="translate(-273.482 -720.79)" fill="#a1a1a1"/>
        </g>
        <g id="Group_40" data-name="Group 40" transform="translate(91.466 5.437)">
          <path id="Path_78" data-name="Path 78" d="M299.885,745.646v-3.751a5.117,5.117,0,0,1,.4-1.991,4.8,4.8,0,0,1,1.123-1.644,6.039,6.039,0,0,1,1.8-1.157,6.424,6.424,0,0,1,1.008-.3q.3-.049.545-.083a4.07,4.07,0,0,1,.529-.033h10.13v2.71h-10.13a2.587,2.587,0,0,0-1.934.76,3.074,3.074,0,0,0-.273.339q-.173.24-.306.454l-.181.513-.033.43v2.363h10.823a5.322,5.322,0,0,1,2.066.413,4.059,4.059,0,0,1,.925.479,4.8,4.8,0,0,1,.81.644,5.577,5.577,0,0,1,1.157,1.653,4.759,4.759,0,0,1,.446,2.032v3.636a5,5,0,0,1-.082.95c-.056.281-.1.474-.132.578a3.753,3.753,0,0,1-.215.487,5.211,5.211,0,0,1-1.189,1.669,5.091,5.091,0,0,1-1.669,1.091,5.44,5.44,0,0,1-2.115.413H297.159v-2.677h16.227a2.827,2.827,0,0,0,1.058-.2,2.591,2.591,0,0,0,.876-.579,2.2,2.2,0,0,0,.562-.76,2.773,2.773,0,0,0,.165-.471,2.006,2.006,0,0,0,.066-.5v-3.636a2.259,2.259,0,0,0-.207-.958,2.307,2.307,0,0,0-.587-.777,2.62,2.62,0,0,0-1.934-.76h-13.5Z" transform="translate(-296.399 -735.93)" fill="#a1a1a1"/>
          <path id="Path_79" data-name="Path 79" d="M312.115,757.793H295.128v-4.2h16.987a2.052,2.052,0,0,0,.776-.144,1.815,1.815,0,0,0,.62-.41l.043-.04a1.451,1.451,0,0,0,.367-.5,2.066,2.066,0,0,0,.119-.341,1.289,1.289,0,0,0,.042-.314v-3.636a1.494,1.494,0,0,0-.136-.639,1.543,1.543,0,0,0-.4-.522l-.039-.036a1.873,1.873,0,0,0-1.4-.538H297.854v-5.849a5.906,5.906,0,0,1,.455-2.284,5.589,5.589,0,0,1,1.3-1.9,6.825,6.825,0,0,1,2.025-1.305,7.256,7.256,0,0,1,1.151-.343l.033-.006q.31-.052.568-.086a4.818,4.818,0,0,1,.63-.04h10.89v4.23h-10.89a1.84,1.84,0,0,0-1.39.532,2.169,2.169,0,0,0-.2.254c-.085.118-.163.232-.232.341l-.12.339-.023.3v1.574h10.064a6.1,6.1,0,0,1,2.358.471,4.786,4.786,0,0,1,1.051.545,5.676,5.676,0,0,1,.918.732,6.372,6.372,0,0,1,1.319,1.88,5.534,5.534,0,0,1,.517,2.353v3.636a5.732,5.732,0,0,1-.1,1.1,6.69,6.69,0,0,1-.154.663,4.228,4.228,0,0,1-.249.576,6.008,6.008,0,0,1-1.348,1.893,5.863,5.863,0,0,1-1.909,1.249A6.225,6.225,0,0,1,312.115,757.793Zm-15.467-1.519h15.467a4.712,4.712,0,0,0,1.823-.355,4.375,4.375,0,0,0,1.424-.926,4.508,4.508,0,0,0,1.027-1.428l.02-.044a3.02,3.02,0,0,0,.17-.376c.011-.035.043-.149.112-.5a4.292,4.292,0,0,0,.068-.8v-3.636a4.029,4.029,0,0,0-.375-1.712,4.85,4.85,0,0,0-1-1.43,4.12,4.12,0,0,0-.674-.539l-.043-.028a3.343,3.343,0,0,0-.754-.388,4.641,4.641,0,0,0-1.8-.364H300.532l0-3.181.04-.531.242-.683.043-.069c.1-.156.21-.325.336-.5a3.66,3.66,0,0,1,.352-.432,3.3,3.3,0,0,1,2.387-.981h9.452v-1.191h-9.37a3.293,3.293,0,0,0-.43.027q-.227.03-.5.076a5.655,5.655,0,0,0-.872.258,5.268,5.268,0,0,0-1.554,1,4.072,4.072,0,0,0-.947,1.387,4.389,4.389,0,0,0-.338,1.7v4.33h12.741a3.366,3.366,0,0,1,2.452.964,3.069,3.069,0,0,1,.757,1.013,3.023,3.023,0,0,1,.277,1.278v3.636a2.782,2.782,0,0,1-.09.693,3.544,3.544,0,0,1-.212.6,2.979,2.979,0,0,1-.734,1,3.35,3.35,0,0,1-1.11.727,3.59,3.59,0,0,1-1.34.253H296.648Z" transform="translate(-295.128 -734.659)" fill="#a1a1a1"/>
        </g>
      </g>
    </g>
  </g>
</svg>
