<svg xmlns="http://www.w3.org/2000/svg" width="13.794" height="13.794" viewBox="0 0 13.794 13.794"><g transform="translate(0.5 0.5)"><path d="M9,13.294a.5.5,0,0,1,0-1A5.9,5.9,0,0,0,9,.5.5.5,0,0,1,8.5,0,.5.5,0,0,1,9-.5,6.9,6.9,0,0,1,9,13.294Z" transform="translate(-2.603)" fill="#a1a1a1"/><path d="M.1,13.294a.5.5,0,0,1-.007-1,5.851,5.851,0,0,0,3.433-1.169.5.5,0,0,1,.6.8A6.845,6.845,0,0,1,.107,13.294Zm6-4.476a.5.5,0,0,1-.477-.65A5.9,5.9,0,0,0,5.9,6.4a5.891,5.891,0,0,0-.3-1.858.5.5,0,1,1,.949-.315A6.889,6.889,0,0,1,6.9,6.4a6.9,6.9,0,0,1-.316,2.07A.5.5,0,0,1,6.1,8.818ZM3.744,1.71a.5.5,0,0,1-.293-.095A5.854,5.854,0,0,0,0,.5.5.5,0,0,1-.5,0,.5.5,0,0,1,0-.5,6.848,6.848,0,0,1,4.037.8a.5.5,0,0,1-.293.905Z" transform="translate(6.397 12.794) rotate(180)" fill="#a1a1a1"/><path d="M4748.967,254.742a.5.5,0,0,1-.361-.154l-2.048-2.138a.5.5,0,1,1,.722-.692l1.658,1.73,3.36-4.114a.5.5,0,1,1,.774.633l-3.717,4.552a.5.5,0,0,1-.367.183Z" transform="translate(-4742.951 -245.569)" fill="#a1a1a1"/></g></svg>