<svg xmlns="http://www.w3.org/2000/svg" width="13.68" height="13.693" viewBox="0 0 13.68 13.693"><g transform="translate(0)"><g transform="translate(0)"><path d="M14.97,21.738a6.873,6.873,0,0,0,6.747-7.713,6.772,6.772,0,0,0-6.791-5.979,7.027,7.027,0,0,0-6.2,3.964,6.871,6.871,0,0,0,0,5.764,7.023,7.023,0,0,0,6.159,3.964h.088ZM14.889,20.6a5.878,5.878,0,0,1-5.573-4.668A5.712,5.712,0,0,1,17.1,9.623a5.852,5.852,0,0,1,3.484,4.547A5.732,5.732,0,0,1,14.963,20.6h-.074Z" transform="translate(-8.09 -8.045)" fill="#a1a1a1"/><rect width="1.14" height="5.13" transform="translate(6.236 2.307)" fill="#a1a1a1"/><rect width="2.85" height="1.14" transform="translate(7.376 6.298)" fill="#a1a1a1"/></g></g></svg>