<svg xmlns="http://www.w3.org/2000/svg" width="28" height="28" viewBox="0 0 28 28">
  <path id="Subtraction_13" data-name="Subtraction 13" d="M14.1,28a2.548,2.548,0,0,1-2.545-2.545V25.34a2.088,2.088,0,0,0-1.375-1.922,2.1,2.1,0,0,0-2.316.42l-.076.076a2.531,2.531,0,0,1-1.8.747,2.562,2.562,0,0,1-1.8-.747,2.544,2.544,0,0,1,0-3.6l.076-.076a2.117,2.117,0,0,0-1.5-3.589H2.545a2.546,2.546,0,0,1,0-5.091H2.66a2.088,2.088,0,0,0,1.922-1.375,2.089,2.089,0,0,0-.42-2.316l-.076-.076a2.531,2.531,0,0,1-.747-1.8,2.562,2.562,0,0,1,.747-1.8,2.544,2.544,0,0,1,3.6,0l.076.076a2.1,2.1,0,0,0,2.317.42h.1a2.1,2.1,0,0,0,1.273-1.922V2.545a2.545,2.545,0,0,1,5.09,0V2.66a2.115,2.115,0,0,0,3.589,1.5l.076-.076a2.531,2.531,0,0,1,1.8-.747,2.562,2.562,0,0,1,1.8.747,2.544,2.544,0,0,1,0,3.6l-.076.076a2.091,2.091,0,0,0-.42,2.317v.1a2.1,2.1,0,0,0,1.922,1.273h.216a2.545,2.545,0,1,1,0,5.09H25.34a2.117,2.117,0,0,0-1.5,3.589l.076.076a2.531,2.531,0,0,1,.747,1.8,2.562,2.562,0,0,1-.747,1.8,2.544,2.544,0,0,1-3.6,0l-.076-.076a2.117,2.117,0,0,0-3.589,1.5v.216A2.549,2.549,0,0,1,14.1,28ZM14.064,7.212A6.788,6.788,0,1,0,20.852,14,6.8,6.8,0,0,0,14.064,7.212Z" fill="#a1a1a1"/>
</svg>
