<svg xmlns="http://www.w3.org/2000/svg" width="32" height="32" viewBox="0 0 32 32">
  <g id="Group_199" data-name="Group 199" transform="translate(-311 -457)">
    <circle id="Ellipse_39" data-name="Ellipse 39" cx="16" cy="16" r="16" transform="translate(311 457)" fill="#707070"/>
    <g id="Icon_feather-share-2" data-name="Icon feather-share-2" transform="translate(316.221 463.384)">
      <path id="Path_248" data-name="Path 248" d="M26.47,4.985A1.985,1.985,0,1,1,24.485,3,1.985,1.985,0,0,1,26.47,4.985Z" transform="translate(-10.061)" fill="none" stroke="#cfcfcf" stroke-linecap="round" stroke-linejoin="round" stroke-width="1"/>
      <path id="Path_249" data-name="Path 249" d="M8.47,15.485A1.985,1.985,0,1,1,6.485,13.5,1.985,1.985,0,0,1,8.47,15.485Z" transform="translate(0 -5.869)" fill="none" stroke="#cfcfcf" stroke-linecap="round" stroke-linejoin="round" stroke-width="1"/>
      <path id="Path_250" data-name="Path 250" d="M26.47,25.985A1.985,1.985,0,1,1,24.485,24,1.985,1.985,0,0,1,26.47,25.985Z" transform="translate(-10.061 -11.737)" fill="none" stroke="#cfcfcf" stroke-linecap="round" stroke-linejoin="round" stroke-width="1"/>
      <path id="Path_251" data-name="Path 251" d="M12.885,20.265,17.4,22.9" transform="translate(-4.687 -9.65)" fill="none" stroke="#cfcfcf" stroke-linecap="round" stroke-linejoin="round" stroke-width="1"/>
      <path id="Path_252" data-name="Path 252" d="M17.4,9.765,12.885,12.4" transform="translate(-4.687 -3.781)" fill="none" stroke="#cfcfcf" stroke-linecap="round" stroke-linejoin="round" stroke-width="1"/>
    </g>
  </g>
</svg>
