<svg xmlns="http://www.w3.org/2000/svg" width="11.995" height="13.217" viewBox="0 0 11.995 13.217">
  <g id="Icon_feather-share-2" data-name="Icon feather-share-2" transform="translate(-4 -2.5)">
    <path id="Path_222" data-name="Path 222" d="M26.165,4.833A1.833,1.833,0,1,1,24.333,3,1.833,1.833,0,0,1,26.165,4.833Z" transform="translate(-10.67)" fill="none" stroke="#a1a1a1" stroke-linecap="round" stroke-linejoin="round" stroke-width="1"/>
    <path id="Path_223" data-name="Path 223" d="M8.165,15.333A1.833,1.833,0,1,1,6.333,13.5,1.833,1.833,0,0,1,8.165,15.333Z" transform="translate(0 -6.224)" fill="none" stroke="#a1a1a1" stroke-linecap="round" stroke-linejoin="round" stroke-width="1"/>
    <path id="Path_224" data-name="Path 224" d="M26.165,25.833A1.833,1.833,0,1,1,24.333,24,1.833,1.833,0,0,1,26.165,25.833Z" transform="translate(-10.67 -12.448)" fill="none" stroke="#a1a1a1" stroke-linecap="round" stroke-linejoin="round" stroke-width="1"/>
    <path id="Path_225" data-name="Path 225" d="M12.885,20.265,17.057,22.7" transform="translate(-4.97 -10.234)" fill="none" stroke="#a1a1a1" stroke-linecap="round" stroke-linejoin="round" stroke-width="1"/>
    <path id="Path_226" data-name="Path 226" d="M17.051,9.765,12.885,12.2" transform="translate(-4.97 -4.01)" fill="none" stroke="#a1a1a1" stroke-linecap="round" stroke-linejoin="round" stroke-width="1"/>
  </g>
</svg>
