<svg xmlns="http://www.w3.org/2000/svg" width="22.786" height="22.786" viewBox="0 0 22.786 22.786">
  <path id="Icon_metro-earth" data-name="Icon metro-earth" d="M13.964,1.928A11.393,11.393,0,1,0,25.357,13.321,11.393,11.393,0,0,0,13.964,1.928Zm0,21.362a9.935,9.935,0,0,1-3.944-.811l5.188-5.836a.712.712,0,0,0,.18-.473V14.033a.712.712,0,0,0-.712-.712c-2.514,0-5.167-2.614-5.193-2.64a.712.712,0,0,0-.5-.209H6.131a.712.712,0,0,0-.712.712v4.272a.712.712,0,0,0,.394.637l2.455,1.227V21.5A9.975,9.975,0,0,1,4.955,9.049h2.6a.712.712,0,0,0,.5-.209l2.848-2.848a.712.712,0,0,0,.209-.5V3.766a10,10,0,0,1,7.216.592c-.092.078-.182.159-.268.246A4.273,4.273,0,0,0,21.081,11.9q.106,0,.212-.005a16.721,16.721,0,0,1-.187,8.285.71.71,0,0,0-.019.116,9.938,9.938,0,0,1-7.124,3Z" transform="translate(-2.571 -1.928)" fill="#fff"/>
</svg>
