<svg xmlns="http://www.w3.org/2000/svg" xmlns:xlink="http://www.w3.org/1999/xlink" width="47.903" height="47.903" viewBox="0 0 47.903 47.903">
  <defs>
    <filter id="Icon_metro-earth" x="0" y="0" width="47.903" height="47.903" filterUnits="userSpaceOnUse">
      <feOffset dy="3" input="SourceAlpha"/>
      <feGaussianBlur stdDeviation="3" result="blur"/>
      <feFlood flood-color="#f65656"/>
      <feComposite operator="in" in2="blur"/>
    </filter>
  </defs>
  <g id="world_selected" transform="translate(-324.882 -791.252)">
    <g transform="matrix(1, 0, 0, 1, 324.88, 791.25)" filter="url(#Icon_metro-earth)">
      <path id="Icon_metro-earth-2" data-name="Icon metro-earth" d="M17.522,1.928A14.952,14.952,0,1,0,32.474,16.88,14.952,14.952,0,0,0,17.522,1.928Zm0,28.034A13.039,13.039,0,0,1,12.347,28.9l6.808-7.659a.935.935,0,0,0,.236-.621v-2.8a.934.934,0,0,0-.934-.934c-3.3,0-6.781-3.43-6.815-3.464a.934.934,0,0,0-.661-.274H7.243a.935.935,0,0,0-.934.934v5.607a.934.934,0,0,0,.517.836l3.221,1.611v5.487A13.091,13.091,0,0,1,5.7,11.273H9.112A.935.935,0,0,0,9.773,11l3.738-3.738a.935.935,0,0,0,.274-.661V4.34a13.119,13.119,0,0,1,9.47.777c-.121.1-.239.209-.352.322a5.608,5.608,0,0,0,3.961,9.572q.139,0,.278-.007A21.944,21.944,0,0,1,26.9,25.878a.932.932,0,0,0-.025.153,13.042,13.042,0,0,1-9.349,3.932Z" transform="translate(6.43 4.07)" fill="#fff"/>
    </g>
    <path id="Icon_metro-earth-3" data-name="Icon metro-earth" d="M17.605,1.928A15.035,15.035,0,1,0,32.64,16.963,15.035,15.035,0,0,0,17.605,1.928Zm0,28.19a13.111,13.111,0,0,1-5.2-1.07l6.846-7.7a.94.94,0,0,0,.237-.624V17.9a.94.94,0,0,0-.94-.94c-3.318,0-6.819-3.449-6.853-3.483a.939.939,0,0,0-.664-.275H7.269a.94.94,0,0,0-.94.94v5.638a.94.94,0,0,0,.519.84l3.239,1.62v5.517A13.163,13.163,0,0,1,5.717,11.325H9.148a.94.94,0,0,0,.664-.275l3.759-3.759a.94.94,0,0,0,.275-.664V4.353a13.192,13.192,0,0,1,9.522.781c-.122.1-.24.21-.354.324A5.639,5.639,0,0,0,27,15.084q.139,0,.279-.007a22.066,22.066,0,0,1-.247,10.933.937.937,0,0,0-.025.153,13.114,13.114,0,0,1-9.4,3.954Z" transform="translate(331.311 798.193)" fill="#fff"/>
  </g>
</svg>
